<svg width="228" height="148" viewBox="0 0 228 148" fill="none" xmlns="http://www.w3.org/2000/svg">
<path d="M190.958 118C201.997 125.92 193.184 138.397 219.226 138.28" stroke="#FFDDBA" stroke-width="5" stroke-linecap="round"/>
<path d="M0 29C0 17.9543 8.95431 9 20 9H192C203.046 9 212 17.9543 212 29V102C212 113.046 203.046 122 192 122H20C8.9543 122 0 113.046 0 102V29Z" fill="#FFDDBA"/>
<path d="M30 2H202C211.941 2 220 10.0589 220 20V94C220 103.941 211.941 112 202 112H30C20.0589 112 12 103.941 12 94V20C12 10.0589 20.0589 2 30 2Z" stroke="#ECB186" stroke-width="4"/>
<path d="M195.412 116.137C206.451 124.056 197.639 136.534 223.68 136.416" stroke="#ECB186" stroke-width="5" stroke-linecap="round"/>
</svg>
